<svg xmlns="http://www.w3.org/2000/svg" viewBox="0 0 512 512">
  <defs>
    <radialGradient id="bg" cx="50%" cy="38%" r="72%">
      <stop offset="0%" stop-color="#24351d"/>
      <stop offset="56%" stop-color="#101f15"/>
      <stop offset="100%" stop-color="#070d0b"/>
    </radialGradient>
    <radialGradient id="halo" cx="50%" cy="50%" r="50%">
      <stop offset="0%" stop-color="#c7eb57" stop-opacity="0.28"/>
      <stop offset="100%" stop-color="#c7eb57" stop-opacity="0"/>
    </radialGradient>
    <linearGradient id="skin" x1="160" y1="130" x2="330" y2="310">
      <stop offset="0%" stop-color="#b5c88a"/>
      <stop offset="48%" stop-color="#7f9360"/>
      <stop offset="100%" stop-color="#4f6138"/>
    </linearGradient>
    <linearGradient id="vest" x1="150" y1="315" x2="362" y2="430">
      <stop offset="0%" stop-color="#765842"/>
      <stop offset="100%" stop-color="#2f421c"/>
    </linearGradient>
  </defs>

  <rect width="512" height="512" fill="url(#bg)"/>
  <rect x="0" y="0" width="512" height="512" fill="url(#halo)"/>

  <g opacity="0.32" fill="#c7eb57">
    <circle cx="62" cy="104" r="3"/>
    <circle cx="431" cy="86" r="2"/>
    <circle cx="448" cy="296" r="3"/>
    <circle cx="94" cy="416" r="2"/>
    <circle cx="352" cy="448" r="2"/>
    <circle cx="190" cy="56" r="1.6"/>
    <circle cx="54" cy="272" r="1.8"/>
  </g>

  <g transform="translate(256 255)">
    <circle r="154" fill="none" stroke="#0b120d" stroke-width="12" opacity="0.62"/>
    <circle r="154" fill="none" stroke="#b8db4b" stroke-width="6" opacity="0.86"/>
    <circle r="102" fill="none" stroke="#b8db4b" stroke-width="2.5" opacity="0.28"/>
    <line x1="-202" y1="0" x2="-157" y2="0" stroke="#b8db4b" stroke-width="10" stroke-linecap="round"/>
    <line x1="157" y1="0" x2="202" y2="0" stroke="#b8db4b" stroke-width="10" stroke-linecap="round"/>
    <line x1="0" y1="-202" x2="0" y2="-157" stroke="#b8db4b" stroke-width="10" stroke-linecap="round"/>
    <line x1="0" y1="157" x2="0" y2="202" stroke="#b8db4b" stroke-width="10" stroke-linecap="round"/>

    <path d="M-112 120 C-70 84 -31 76 0 80 C33 74 76 86 112 120 L126 190 L-126 190 Z" fill="url(#vest)"/>
    <path d="M-102 122 C-54 102 -20 105 0 112 C24 103 60 103 102 122 L108 148 L-108 148 Z" fill="#6f543b" opacity="0.86"/>

    <ellipse cx="0" cy="-42" rx="78" ry="88" fill="url(#skin)"/>
    <ellipse cx="20" cy="-38" rx="58" ry="78" fill="#3c4d30" opacity="0.33"/>
    <ellipse cx="-31" cy="-78" rx="30" ry="18" fill="#d6e8ad" opacity="0.55"/>
    <path d="M-54 -104 C-26 -130 38 -128 65 -88 C35 -103 -10 -99 -54 -104Z" fill="#52633e" opacity="0.45"/>

    <ellipse cx="-29" cy="-44" rx="14" ry="18" fill="#081009"/>
    <ellipse cx="31" cy="-44" rx="14" ry="18" fill="#081009"/>
    <circle cx="-33" cy="-49" r="4" fill="#c7eb57"/>
    <circle cx="26" cy="-49" r="4" fill="#c7eb57"/>
    <path d="M-47 16 C-24 36 -9 31 0 24 C13 34 31 34 50 12" fill="none" stroke="#081009" stroke-width="8" stroke-linecap="round"/>
    <g stroke="#081009" stroke-width="3" stroke-linecap="round">
      <line x1="-35" y1="18" x2="-35" y2="36"/>
      <line x1="-15" y1="26" x2="-15" y2="42"/>
      <line x1="5" y1="27" x2="5" y2="43"/>
      <line x1="28" y1="21" x2="28" y2="38"/>
    </g>
    <path d="M-8 48 C-2 72 2 72 8 48 C5 64 2 75 0 82 C-2 75 -5 64 -8 48Z" fill="#b8db4b" opacity="0.84"/>
  </g>
</svg>
